<svg xmlns="http://www.w3.org/2000/svg" viewBox="0 0 512 512" width="512" height="512">
  <rect width="512" height="512" rx="112" fill="#020617"/>
  <g transform="translate(112 112) scale(12)" fill="none" stroke="#ffffff" stroke-width="2" stroke-linecap="round" stroke-linejoin="round">
    <path d="M21.3 15.3a2.4 2.4 0 0 1 0 3.4l-2.6 2.6a2.4 2.4 0 0 1-3.4 0L2.7 8.7a2.41 2.41 0 0 1 0-3.4l2.6-2.6a2.41 2.41 0 0 1 3.4 0Z"/>
    <path d="m14.5 12.5 2-2"/>
    <path d="m11.5 9.5 2-2"/>
    <path d="m8.5 6.5 2-2"/>
    <path d="m17.5 15.5 2-2"/>
  </g>
</svg>
